<svg width="102" height="90" viewBox="0 0 102 90" fill="none" xmlns="http://www.w3.org/2000/svg">
<g clip-path="url(#clip0)">
<path d="M84.0812 17.7214H16.7698V89.9651H84.0812V17.7214Z" fill="url(#paint0_linear)"/>
<path d="M16.4913 17.7214C16.5725 17.7214 16.6537 17.7562 16.7698 17.791C16.7698 41.8258 16.7698 65.8607 16.7698 89.9303C11.559 90.3365 7.16051 89.0251 3.66728 85.6595C1.19533 83.2688 -2.75036e-05 80.4603 -2.75036e-05 77.2804C-2.75036e-05 66.0231 -2.75036e-05 54.7775 -2.75036e-05 43.5202C-2.75036e-05 39.2262 -0.0116329 34.9322 -0.0116329 30.6382C-0.0116329 25.4506 2.78527 21.6788 7.92647 19.1257C10.5725 17.8258 13.5087 17.6286 16.4913 17.7214Z" fill="url(#paint1_linear)"/>
<path d="M72.325 17.7098C75.3308 17.7098 75.6325 17.7098 78.6267 17.7098C78.6267 41.8259 78.6267 65.8607 78.6267 89.9419C58.1896 89.9419 42.7311 89.9419 22.2244 89.9419C22.2244 65.8723 22.2244 41.8375 22.2244 17.733C25.2186 17.733 25.8685 17.733 28.9207 17.733C28.9207 17.4313 28.9207 17.1992 28.9207 16.9787C28.9207 14.3907 28.9323 11.7911 28.9091 9.20307C28.8859 7.39263 29.3733 5.81429 30.7892 4.58412C31.7872 3.72532 32.9362 3.28431 34.236 3.28431C38.2631 3.2727 42.2785 3.27271 46.3056 3.27271C53.0716 3.27271 59.8491 3.28431 66.6151 3.27271C68.3907 3.27271 69.8646 3.85298 71.0252 5.1992C71.9536 6.27851 72.3018 7.5435 72.3018 8.95936C72.2901 11.6866 72.3018 14.4139 72.3018 17.1412C72.2901 17.292 72.3018 17.4661 72.325 17.7098ZM36.1857 17.7098C36.4642 17.7098 36.6731 17.7098 36.882 17.7098C40.0851 17.7098 43.2998 17.7098 46.5029 17.7098C52.4913 17.7098 58.4913 17.7098 64.4797 17.7214C64.9555 17.7214 65.06 17.5706 65.06 17.118C65.0368 15.087 65.06 13.0561 65.06 11.0251C65.06 10.8626 65.0368 10.7002 65.0135 10.5261C55.3811 10.5261 45.8066 10.5261 36.1857 10.5261C36.1857 12.9168 36.1857 15.2611 36.1857 17.7098Z" fill="white"/>
<mask id="mask0" mask-type="alpha" maskUnits="userSpaceOnUse" x="22" y="3" width="57" height="87">
<path d="M72.3249 17.7098C75.3307 17.7098 75.6325 17.7098 78.6267 17.7098C78.6267 41.8259 78.6267 65.8607 78.6267 89.9419C58.1895 89.9419 42.7311 89.9419 22.2243 89.9419C22.2243 65.8723 22.2243 41.8375 22.2243 17.733C25.2185 17.733 25.8684 17.733 28.9207 17.733C28.9207 17.4313 28.9207 17.1992 28.9207 16.9787C28.9207 14.3907 28.9323 11.7911 28.9091 9.20307C28.8859 7.39263 29.3733 5.81429 30.7891 4.58412C31.7872 3.72532 32.9361 3.28431 34.236 3.28431C38.263 3.2727 42.2785 3.27271 46.3056 3.27271C53.0715 3.27271 59.8491 3.28431 66.6151 3.27271C68.3907 3.27271 69.8646 3.85298 71.0251 5.1992C71.9536 6.27851 72.3017 7.5435 72.3017 8.95936C72.2901 11.6866 72.3017 14.4139 72.3017 17.1412C72.2901 17.292 72.3017 17.4661 72.3249 17.7098ZM36.1857 17.7098C36.4642 17.7098 36.6731 17.7098 36.882 17.7098C40.0851 17.7098 43.2998 17.7098 46.5029 17.7098C52.4913 17.7098 58.4913 17.7098 64.4797 17.7214C64.9555 17.7214 65.0599 17.5706 65.0599 17.118C65.0367 15.087 65.0599 13.0561 65.0599 11.0251C65.0599 10.8626 65.0367 10.7002 65.0135 10.5261C55.381 10.5261 45.8066 10.5261 36.1857 10.5261C36.1857 12.9168 36.1857 15.2611 36.1857 17.7098Z" fill="#F7F9FC"/>
</mask>
<g mask="url(#mask0)">
<path d="M73.4824 0H26.5618V17.7331H73.4824V0Z" fill="url(#paint2_linear)"/>
</g>
<path d="M101.188 30.4526C101.188 25.6712 98.5764 22.1083 93.9343 19.5203C91.0793 17.9303 87.8414 17.6286 84.5222 17.6982C84.0116 17.7098 84.0812 17.9768 84.0812 18.2553C84.0812 26.6112 84.0812 34.9555 84.0812 43.3114C84.0812 57.9922 84.0812 72.6615 84.0696 87.3423C84.0696 88.1895 84.0696 89.0367 84.0696 89.9536C86.1586 90.0232 88.1431 90.0348 90.0929 89.5706C96.6847 88.0155 101.176 83.1064 101.176 77.3153C101.199 61.706 101.188 46.0735 101.188 30.4526Z" fill="url(#paint3_linear)"/>
<path d="M55.9265 59.176C55.9265 60.6731 55.9265 62.0889 55.9265 63.5164C55.9265 65.1295 55.9265 66.7427 55.9265 68.3442C55.9265 69.3075 55.4391 69.8181 54.4874 69.8181C51.8646 69.8297 49.2418 69.8297 46.619 69.8181C45.7486 69.8181 45.2611 69.2727 45.2611 68.3558C45.2611 65.4777 45.2611 62.5996 45.2611 59.7214C45.2611 59.5589 45.2611 59.3849 45.2611 59.176C45.0406 59.176 44.8781 59.176 44.7041 59.176C41.8723 59.176 39.029 59.176 36.1973 59.176C35.0716 59.176 34.6074 58.7233 34.6074 57.5976C34.6074 55.1025 34.6074 52.6073 34.6074 50.1121C34.6074 48.9748 35.06 48.5222 36.1857 48.5222C39.0058 48.5222 41.8259 48.5222 44.646 48.5222C44.8317 48.5222 45.0058 48.5222 45.2495 48.5222C45.2495 48.3365 45.2495 48.1856 45.2495 48.0348C45.2495 45.1566 45.2495 42.2785 45.2495 39.4003C45.2495 38.3326 45.7253 37.8684 46.793 37.8684C49.2882 37.8684 51.7834 37.8684 54.2785 37.8684C55.4507 37.8684 55.9033 38.3094 55.9033 39.5048C55.9149 42.3597 55.9033 45.203 55.9033 48.058C55.9033 48.1972 55.9033 48.3365 55.9033 48.5338C56.089 48.5338 56.2515 48.5338 56.4023 48.5338C59.2805 48.5338 62.1586 48.5338 65.0368 48.5454C66.0928 48.5454 66.5455 49.0096 66.5455 50.0657C66.5455 52.5725 66.5455 55.0792 66.5455 57.586C66.5455 58.735 66.1045 59.176 64.9787 59.176C62.1122 59.176 59.2456 59.176 56.3907 59.1876C56.2747 59.176 56.1354 59.176 55.9265 59.176Z" fill="url(#paint4_linear)"/>
</g>
<defs>
<linearGradient id="paint0_linear" x1="16.7715" y1="53.839" x2="84.0781" y2="53.839" gradientUnits="userSpaceOnUse">
<stop stop-color="#B0F4FF"/>
<stop offset="1" stop-color="#69DCFC"/>
</linearGradient>
<linearGradient id="paint1_linear" x1="-2.75035e-05" y1="53.8503" x2="16.7715" y2="53.8503" gradientUnits="userSpaceOnUse">
<stop stop-color="#6CBCFC"/>
<stop offset="1" stop-color="#458DFC"/>
</linearGradient>
<linearGradient id="paint2_linear" x1="26.5569" y1="8.86466" x2="73.4804" y2="8.86466" gradientUnits="userSpaceOnUse">
<stop stop-color="#6CBCFC"/>
<stop offset="1" stop-color="#458DFC"/>
</linearGradient>
<linearGradient id="paint3_linear" x1="84.0725" y1="53.8432" x2="101.189" y2="53.8432" gradientUnits="userSpaceOnUse">
<stop stop-color="#6CBCFC"/>
<stop offset="1" stop-color="#458DFC"/>
</linearGradient>
<linearGradient id="paint4_linear" x1="34.6145" y1="53.8549" x2="66.5687" y2="53.8549" gradientUnits="userSpaceOnUse">
<stop stop-color="#6CBCFC"/>
<stop offset="1" stop-color="#458DFC"/>
</linearGradient>
<clipPath id="clip0">
<rect width="101.188" height="90" fill="white"/>
</clipPath>
</defs>
</svg>
